<svg xmlns="http://www.w3.org/2000/svg" viewBox="0 0 32 32" fill="none">
  <rect width="32" height="32" rx="8" fill="#7c3aed"/>
  <path
    d="M8 12h12v10a3 3 0 0 1-3 3H11a3 3 0 0 1-3-3V12z"
    fill="#fff"
  />
  <path
    d="M8 12h12v2H8v-2z"
    fill="#f5e6d3"
  />
  <path
    d="M20 14h2.5a2.5 2.5 0 0 1 0 5H20v-5z"
    stroke="#fff"
    stroke-width="2"
    fill="none"
    stroke-linecap="round"
    stroke-linejoin="round"
  />
  <path
    d="M11 8c0-1.5.8-2.5 1.5-2.5M14 7c0-2 1-3 1.8-3M17 8c0-1.5.8-2.5 1.5-2.5"
    stroke="#f5e6d3"
    stroke-width="1.5"
    stroke-linecap="round"
  />
</svg>
